<svg width="407" height="137" viewBox="0 0 407 137" fill="none" xmlns="http://www.w3.org/2000/svg">
<path d="M325.3 0.6H335.3L335.4 23.7H345.4V28H335.4V42.1C335.4 42.4 335.6 42.5 336 42.5C340.4 44.5 343.8 46.3 346 48C345.3 50.9 344.4 53.4 343.3 55.7C342.2 54.6 340.9 53 339.4 51C337.9 49.3 336.6 47.6 335.5 45.9L335.7 107.1H325.7L325.5 59.2C322.6 64.9 318.7 71.5 313.9 78.9H311.1C319.9 64.6 324.5 47.6 324.8 28H312.6V23.7H325.4L325.3 0.6ZM371.4 17.6L403.6 17.5V21.8L381.4 21.9C387.3 28.2 395.9 32 407 33.4C404.8 37.1 404.4 41 405.9 45C402.9 44.4 398.1 41.9 391.5 37.3L391.6 52.7H382.2V49.3L365 49.4V53.3H355.6L355.5 34.5C354 35.6 352.2 36.9 350 38.4C346.7 40.7 344.1 42.6 342.3 44H339.5C349.5 35.4 356.3 28.1 360 22.1L343.7 22V17.7L362 17.6C362.7 15.9 363.6 13.3 364.7 9.9C360.6 10.5 353.6 10.7 343.6 10.4V9.5C354.4 9 369.9 5.8 390.2 0C392 1.1 394.6 3 398 5.5C398.7 6.1 399.5 6.5 400.2 6.8C399.1 7.1 397.4 7.4 395.2 7.7C388.5 8.3 382.4 8.6 376.9 8.6C375.4 11.7 373.6 14.7 371.4 17.6ZM355.4 53.6V57.9L390.9 57.8V53.5H400.9L401 97.6C401.7 101 397.1 104.2 387.2 107.1C385.7 105.7 383.7 105.4 381.1 106.3L376.7 107.6L376.1 106.7C387.5 102.7 392.5 99.4 391 96.8V62L355.5 62.1L355.6 106.6H346.2L346 53.6H355.4ZM379.2 21.9H368.7C366.9 24.2 364.1 26.9 360.4 30.1H364.8V33.1L382 33V30H383.7C383.3 29.7 382.8 28.9 382 27.4C380.9 25.4 379.9 23.6 379.2 21.9ZM369.9 66.4V70.3H376V66.4H385.4L385.5 95.9H376.1V91.2H370V95.9H360.6L360.5 66.4H369.9ZM382 37.2L364.8 37.3V45L382 44.9V37.2ZM376 74.5H369.9V86.9H376V74.5Z" fill="#C69E62"/>
<path d="M14.4 14.1H1.8V9.79995L37.4 9.69995V14H24.8L25 44H35.5V48.2999H25L25.1 82.5C29.3 80.5 33.6 77.2 38.2 72.6H38.7C33.2 84.6 21.3 93 3.2 98C3.5 94.6 2.5 91.2 0 87.7C4.5 87.4 9.4 86.8 14.7 85.9L14.6 48.2999H3V44H14.5L14.4 14.1ZM35.7 103.8H32.6C39.2 97.2 42.3 89.8 42 81.5H53.5C52 90.9 46.1 98.4 35.7 103.8ZM42.7 2.89995H52.1V7.19995L80.4 6.99995V2.69995H89.8L89.9 40.2999H80.5V36L63.7 36.0999C63.7 36.3999 64 36.8 64.8 37.4C67.9 39.4 70.4 40.8999 72.1 42.0999C71.4 43.4999 70.4 45.2 69 47.2L96.2 47.0999V51.4L37 51.5999V47.2999L64.8 47.2C63.7 43.8 62.7 40.0999 61.6 36.0999H52.2V39.5H42.8L42.7 2.89995ZM60.8 98.6L60.7 75.5H51.3V78.9H41.9L41.8 54.9H51.2V59.2L79.5 59.0999V54.7999H88.9L89 78.8H79.6V75.4H70.2L70.3 99.4C70 103.1 65.4 105.7 56.7 107.1C56 106.2 54.9 105.8 53.6 105.8L45.7 106.7L45.2 105.4C55.9 103.5 61.1 101.2 60.8 98.6ZM79.6 71.2V63.5L51.3 63.5999V71.3L79.6 71.2ZM52.2 31.9L80.5 31.7999L80.4 11.3L52.1 11.4V19.1L76.3 19V23.2999L52.2 23.4V31.9ZM77.5 78.9L78.5 78.5C81.7 88.2 86.9 93.4 94.3 94.3C91.9 96.3 91.5 100 93.3 105.4C83.1 102 77.9 93.1 77.5 78.9Z" fill="#C69E62"/>
<path d="M111.4 15L126.1 14.9V1.19995H136.6V14.9H146.6C146.9 12.3 147.3 8.59995 147.6 3.79995H159.1C157.7 16.6 154.5 26.5999 149.2 33.7999H159.7V38.0999H145.6C142.5 42.0999 137.2 46.6999 129.9 51.7999H144V48.4H154.5L154.7 101H144.2V95H128.4V104.4H117.9L117.8 59.9C116.8 60.5 115.5 61.3 114.1 62.5C111.3 64.2 109.4 65.4 108.3 65.9H105.2C107.3 64.8 110.2 62.7 114.1 59.9C115.8 58.8 117.1 57.8999 117.8 57.2999V47.5H128.3V48.4C131.4 45.5 134.4 42.0999 137.2 38.0999L109.4 38.2V33.9L126.2 33.7999V19.2999L111.5 19.4L111.4 15ZM144.1 91.1L144 56H128.3V70.5H139.8V74.8H128.3L128.4 91.1H144.1ZM146 19.2H136.6V33.7H139.7C142.2 29.8 144.3 24.9 146 19.2ZM173.5 106.8H163L162.7 3.69995H173.2V8.79995H183.7V2.79995H194.2L194.3 20.7999C194 29.9 189.1 36.3999 179.7 40.0999C189.5 41.7999 194.7 46.1999 195.5 53.2999L195.6 84.1C195.3 89.8 190.7 94.1 182 97C180.6 95.6 179.2 95.2 177.8 95.7L173.6 96.6L173.5 106.8ZM183.7 24.2V13.9H173.2L173.5 94.7C180.8 92.7 184.7 88.8 185 83.1L184.9 50.5999C184.5 46.5999 182.1 43.1 177.5 39.9C181.3 36.9 183.4 31.6 183.7 24.2Z" fill="#C69E62"/>
<path d="M230.8 3.4999H245.2C244.5 5.4999 243.2 7.7999 241.3 10.3999C243.2 11.7999 245.9 13.3999 249.6 15.0999C255.5 18.1999 260.3 20.7999 264 22.7999C264 26.4999 263.7 30.0999 262.9 33.4999C256.6 28.9999 250.1 23.2999 243.4 16.4999C241.9 14.4999 240.8 13.0999 240.1 12.1999C237.9 15.5999 233.7 20.5999 227.4 27.1999L226.8 28.0999L254 27.9999V32.2999L225.2 32.3999V30.2999C224.8 30.8999 224.1 31.3999 223 31.9999C220.4 34.8999 218.6 36.8999 217.5 37.9999H225.3V42.6999H229.7V37.5999H238L238.1 75.1999H229.8V70.4999H225.4V75.1999H217.1L217 38.3999C215.5 39.4999 214.2 40.4999 213.1 41.3999H209.2C222.2 28.8999 229.4 16.3999 230.8 3.4999ZM214.5 105.4H210.6C218 98.4999 221.4 88.7999 221 76.2999H232.1C231.4 79.9999 230.5 83.2999 229.4 86.0999C230.5 86.9999 232 87.6999 233.8 88.1999C235.3 89.0999 236.8 89.7999 238.2 90.2999C237.1 92.2999 236 94.2999 234.9 96.2999C231.9 93.6999 229.7 91.1999 228.2 88.5999C226.5 91.4999 221.9 97.0999 214.5 105.4ZM225.4 46.6999L225.5 65.8999H229.9L229.8 46.6999H225.4ZM243.8 76.1999H255.5C255.1 79.5999 254.4 82.4999 253.3 84.7999C256.3 89.8999 261.3 93.1999 268.3 94.5999C265 96.5999 263.9 100.6 265 106.6C257.6 102.6 253.3 96.1999 252.2 87.3999C249.3 91.6999 243 97.7999 233.4 105.9H230.1C239.3 99.1999 243.9 89.2999 243.8 76.1999ZM242 37.2999H250.3V42.3999H254.7V37.2999H263L263.1 74.4999H254.8V70.1999H250.4V74.4999H242.1L242 37.2999ZM254.8 46.5999H250.4L250.5 65.7999H254.9L254.8 46.5999ZM270.3 13.1999H280.8L281 86.7999H270.5L270.3 13.1999ZM297.4 2.3999L297.7 95.1999C297.3 97.9999 292.5 101.3 283.3 105.1C282.6 104 281.1 103.7 278.9 104.3L273.4 106L272.8 105.1C282.4 101.9 287 98.7999 286.6 95.5999L286.3 2.3999H297.4Z" fill="#C69E62"/>
<path d="M74.3999 133.2C74.3999 133.6 74.3999 133.9 74.2999 134.3C74.1999 134.6 74.0999 135 73.8999 135.2C73.6999 135.5 73.3999 135.7 73.0999 135.9C72.6999 136.1 72.1999 136.2 71.5999 136.2C71.2999 136.2 70.9999 136.2 70.6999 136.1C70.3999 136 70.1999 136 69.9999 135.9C69.7999 135.8 69.5999 135.7 69.3999 135.6C69.1999 135.5 69.0999 135.3 68.8999 135.2L69.3999 134.5C69.4999 134.6 69.5999 134.7 69.7999 134.8C69.9999 134.9 70.0999 135.1 70.2999 135.2C70.4999 135.3 70.6999 135.4 70.8999 135.5C71.0999 135.6 71.2999 135.6 71.4999 135.6C71.8999 135.6 72.2999 135.5 72.4999 135.3C72.6999 135.1 72.7999 134.8 72.7999 134.4V126.3H74.4999V133.2H74.3999Z" fill="#C69E62"/>
<path d="M84 126.2H85.7V136H84V126.2Z" fill="#C69E62"/>
<path d="M95.2998 126.2H96.1998L102.6 133.4H102.7V126.2H103.4V136.3H103L95.9998 128.3V136.1H95.2998V126.2Z" fill="#C69E62"/>
<path d="M118.7 126.7C118.1 126.7 117.6 126.8 117.1 127C116.6 127.2 116.2 127.5 115.8 127.9C115.4 128.3 115.2 128.8 115 129.3C114.8 129.9 114.7 130.5 114.7 131.2C114.7 131.9 114.8 132.5 115 133.1C115.2 133.7 115.5 134.1 115.9 134.5C116.3 134.9 116.7 135.2 117.3 135.4C117.8 135.6 118.4 135.7 119 135.7C119.4 135.7 119.8 135.6 120.2 135.5C120.5 135.4 120.9 135.2 121.1 135V131.6H119.2V131H122.7V135.3C122.4 135.5 122.1 135.6 121.8 135.7C121.5 135.8 121.2 135.9 120.9 136C120.6 136.1 120.2 136.1 119.8 136.2C119.4 136.2 118.9 136.3 118.4 136.3C117.9 136.3 117.3 136.2 116.9 136.1C116.4 136 116 135.8 115.5 135.6C115.1 135.4 114.7 135.1 114.4 134.8C114.1 134.5 113.8 134.1 113.5 133.8C113.3 133.4 113.1 133 113 132.6C112.9 132.2 112.8 131.7 112.8 131.3C112.8 130.8 112.9 130.4 113 130C113.1 129.6 113.3 129.1 113.5 128.8C113.7 128.4 114 128.1 114.3 127.7C114.6 127.4 115 127.1 115.4 126.9C115.8 126.7 116.3 126.5 116.7 126.4C117.2 126.3 117.7 126.2 118.2 126.2C118.7 126.2 119.2 126.3 119.6 126.4C120 126.5 120.4 126.7 120.8 127C121.2 127.2 121.5 127.5 121.8 127.8C122.1 128.1 122.3 128.4 122.5 128.8L121.8 129.3C121.4 128.5 120.9 127.9 120.4 127.6C119.9 126.9 119.4 126.7 118.7 126.7Z" fill="#C69E62"/>
<path d="M142.2 126.2H145.5C146.5 126.2 147.4 126.3 148.1 126.5C148.8 126.7 149.4 127 149.9 127.4C150.5 127.9 150.9 128.4 151.1 129C151.4 129.6 151.5 130.3 151.5 131C151.5 131.7 151.4 132.3 151.1 133C150.9 133.6 150.5 134.1 150 134.6C149.5 135.1 148.9 135.4 148.2 135.7C147.5 136 146.7 136.1 145.8 136.1H142.1V126.2H142.2ZM143.9 135.3H145.7C146.3 135.3 146.8 135.2 147.3 135C147.8 134.8 148.2 134.5 148.6 134.2C149 133.8 149.3 133.4 149.5 132.9C149.7 132.4 149.8 131.8 149.8 131.1C149.8 130.5 149.7 129.9 149.5 129.4C149.3 128.9 149 128.5 148.7 128.1C148.3 127.7 147.9 127.4 147.4 127.2C146.9 127 146.4 126.9 145.8 126.9H144V135.3H143.9Z" fill="#C69E62"/>
<path d="M160.6 126.2H162.3V132.6C162.3 133 162.4 133.4 162.5 133.8C162.6 134.2 162.8 134.5 163.1 134.8C163.4 135.1 163.7 135.3 164.1 135.5C164.5 135.7 164.9 135.7 165.4 135.7C165.9 135.7 166.3 135.6 166.7 135.5C167.1 135.3 167.4 135.1 167.7 134.8C168 134.5 168.2 134.2 168.3 133.8C168.4 133.4 168.5 133 168.5 132.6V126.2H169.2V132.6C169.2 133.1 169.1 133.6 169 134C168.8 134.4 168.6 134.8 168.2 135.2C167.9 135.5 167.4 135.8 166.9 136C166.4 136.2 165.7 136.3 164.9 136.3C164.2 136.3 163.6 136.2 163.1 136C162.6 135.8 162.1 135.5 161.8 135.2C161.4 134.9 161.2 134.5 161 134C160.8 133.5 160.7 133.1 160.7 132.5V126.2H160.6Z" fill="#C69E62"/>
<path d="M190.3 131.1C190.3 131.8 190.4 132.4 190.6 133C190.8 133.5 191.1 134 191.5 134.4C191.9 134.8 192.3 135.1 192.8 135.3C193.3 135.5 193.8 135.6 194.4 135.6C194.7 135.6 195.1 135.5 195.4 135.4C195.7 135.3 196 135.1 196.3 134.9C196.6 134.7 196.8 134.4 197 134.2C197.2 133.9 197.4 133.7 197.5 133.4L198.2 133.8C198 134.1 197.8 134.4 197.5 134.8C197.2 135.1 196.9 135.4 196.5 135.6C196.1 135.8 195.7 136 195.3 136.2C194.8 136.3 194.3 136.4 193.8 136.4C193 136.4 192.2 136.3 191.6 136C190.9 135.7 190.4 135.4 189.9 134.9C189.4 134.4 189.1 133.9 188.8 133.3C188.5 132.7 188.4 132 188.4 131.3C188.4 130.8 188.5 130.4 188.6 130C188.7 129.6 188.9 129.2 189.1 128.8C189.3 128.4 189.6 128.1 189.9 127.7C190.2 127.4 190.6 127.1 191 126.9C191.4 126.7 191.9 126.5 192.3 126.4C192.8 126.3 193.3 126.2 193.8 126.2C194.3 126.2 194.8 126.3 195.3 126.4C195.7 126.5 196.1 126.7 196.5 127C196.9 127.2 197.2 127.5 197.5 127.8C197.8 128.1 198 128.4 198.2 128.8L197.5 129.3C197.1 128.5 196.6 127.9 196.1 127.6C195.6 127.2 195 127 194.3 127C193.7 127 193.2 127.1 192.7 127.3C192.2 127.5 191.8 127.8 191.4 128.2C191 128.6 190.7 129.1 190.5 129.6C190.4 129.8 190.3 130.4 190.3 131.1Z" fill="#C69E62"/>
<path d="M211.5 126L216.1 136.1H214.4L212.9 132.8H208.7L207.2 136.1H206.4L211.1 126H211.5ZM209 132.1H212.6L210.8 128.2L209 132.1Z" fill="#C69E62"/>
<path d="M224.5 126.2H226.2L230 133.7H230.1L233.9 126.2H235.6V136H233.9V128H233.8L229.8 136.1H229.5L225.4 128.1H225.3V136.1H224.6V126.2H224.5Z" fill="#C69E62"/>
<path d="M245.2 126.2H249.2C249.7 126.2 250.2 126.3 250.6 126.4C251 126.5 251.4 126.7 251.7 126.9C252 127.1 252.3 127.4 252.4 127.7C252.6 128 252.7 128.3 252.7 128.7C252.7 129 252.7 129.2 252.6 129.4C252.5 129.6 252.4 129.8 252.3 130C252.2 130.2 252 130.4 251.7 130.5C251.5 130.7 251.2 130.8 250.8 131C251.2 131.1 251.5 131.1 251.7 131.3C252 131.4 252.2 131.6 252.4 131.8C252.6 132 252.8 132.2 252.9 132.5C253 132.8 253.1 133.1 253.1 133.4C253.1 133.8 253 134.1 252.9 134.4C252.7 134.7 252.5 135 252.2 135.2C251.9 135.4 251.5 135.6 251.1 135.8C250.7 135.9 250.2 136 249.7 136H245.1V126.2H245.2ZM246.8 130.6H248.9C249.2 130.6 249.5 130.6 249.8 130.5C250.1 130.4 250.3 130.3 250.5 130.1C250.7 129.9 250.8 129.7 250.9 129.5C251 129.3 251 129 251 128.8C251 128.5 250.9 128.3 250.8 128C250.7 127.8 250.5 127.6 250.3 127.4C250.1 127.2 249.8 127.1 249.4 127C249 126.9 248.6 126.9 248.1 126.9H246.7V130.6H246.8ZM246.8 135.3H248.6C249.1 135.3 249.5 135.3 249.8 135.2C250.1 135.1 250.4 135 250.7 134.8C250.9 134.6 251.1 134.4 251.2 134.2C251.3 134 251.4 133.7 251.4 133.4C251.4 133.1 251.4 132.8 251.3 132.5C251.2 132.2 251 132 250.8 131.8C250.6 131.6 250.3 131.5 249.9 131.3C249.5 131.2 249.1 131.1 248.6 131.1H246.9V135.3H246.8Z" fill="#C69E62"/>
<path d="M262.2 126.2H265.6C266.2 126.2 266.7 126.3 267.1 126.4C267.5 126.5 267.9 126.7 268.2 126.9C268.5 127.1 268.7 127.4 268.9 127.7C269.1 128 269.1 128.4 269.1 128.7C269.1 129 269 129.3 268.9 129.6C268.8 129.9 268.6 130.1 268.4 130.3C268.2 130.5 267.9 130.7 267.6 130.9C267.3 131.1 267 131.2 266.6 131.3L270.2 136.1H268.3L264.9 131.5H263.7V136.1H262V126.2H262.2ZM263.9 130.9H264.9C265.3 130.9 265.6 130.9 265.9 130.8C266.2 130.7 266.5 130.6 266.7 130.4C266.9 130.2 267.1 130 267.2 129.7C267.3 129.4 267.4 129.2 267.4 128.8C267.4 128.5 267.3 128.2 267.2 128C267.1 127.8 267 127.5 266.8 127.4C266.6 127.2 266.4 127.1 266.1 127C265.8 126.9 265.6 126.9 265.3 126.9H263.8V130.9H263.9Z" fill="#C69E62"/>
<path d="M278.7 126.2H280.4V136H278.7V126.2Z" fill="#C69E62"/>
<path d="M290 126.2H293.3C294.3 126.2 295.2 126.3 295.9 126.5C296.6 126.7 297.2 127 297.7 127.4C298.3 127.9 298.7 128.4 298.9 129C299.2 129.6 299.3 130.3 299.3 131C299.3 131.7 299.2 132.3 298.9 133C298.6 133.7 298.3 134.1 297.8 134.6C297.3 135.1 296.7 135.4 296 135.7C295.3 136 294.5 136.1 293.6 136.1H290V126.2ZM291.7 135.3H293.5C294.1 135.3 294.6 135.2 295.1 135C295.6 134.8 296 134.5 296.4 134.2C296.8 133.8 297.1 133.4 297.3 132.9C297.5 132.4 297.6 131.8 297.6 131.1C297.6 130.5 297.5 129.9 297.3 129.4C297.1 128.9 296.8 128.5 296.5 128.1C296.1 127.7 295.7 127.4 295.2 127.2C294.7 127 294.2 126.9 293.6 126.9H291.8V135.3H291.7Z" fill="#C69E62"/>
<path d="M314.2 126.7C313.6 126.7 313.1 126.8 312.6 127C312.1 127.2 311.7 127.5 311.3 127.9C310.9 128.3 310.7 128.8 310.5 129.3C310.3 129.9 310.2 130.5 310.2 131.2C310.2 131.9 310.3 132.5 310.5 133.1C310.7 133.7 311 134.1 311.4 134.5C311.8 134.9 312.2 135.2 312.8 135.4C313.3 135.6 313.9 135.7 314.5 135.7C314.9 135.7 315.3 135.6 315.7 135.5C316 135.4 316.4 135.2 316.6 135V131.6H314.7V131H318.2V135.3C317.9 135.5 317.6 135.6 317.3 135.7C317 135.8 316.7 135.9 316.4 136C316.1 136.1 315.7 136.1 315.3 136.2C314.9 136.2 314.4 136.3 313.9 136.3C313.4 136.3 312.8 136.2 312.4 136.1C311.9 136 311.5 135.8 311 135.6C310.6 135.4 310.2 135.1 309.9 134.8C309.6 134.5 309.3 134.1 309 133.8C308.8 133.4 308.6 133 308.5 132.6C308.4 132.2 308.3 131.7 308.3 131.3C308.3 130.8 308.4 130.4 308.5 130C308.6 129.6 308.8 129.1 309 128.8C309.2 128.4 309.5 128.1 309.8 127.7C310.1 127.4 310.5 127.1 310.9 126.9C311.3 126.7 311.8 126.5 312.2 126.4C312.7 126.3 313.2 126.2 313.7 126.2C314.2 126.2 314.7 126.3 315.1 126.4C315.5 126.5 315.9 126.7 316.3 127C316.7 127.2 317 127.5 317.3 127.8C317.6 128.1 317.8 128.4 318 128.8L317.3 129.3C316.9 128.5 316.4 127.9 315.9 127.6C315.4 126.9 314.8 126.7 314.2 126.7Z" fill="#C69E62"/>
<path d="M334.4 126.2V126.8H329.2V130.3H332.7V130.9H329.2V135.3H334.4V135.9H327.6V126.1H334.4V126.2Z" fill="#C69E62"/>
<path d="M341 131.1H401.1" stroke="#231815" stroke-width="0.6873" stroke-miterlimit="10"/>
<path d="M2.69995 131.1H62.7999" stroke="#231815" stroke-width="0.6873" stroke-miterlimit="10"/>
</svg>
