<svg width="283" height="96" viewBox="0 0 283 96" fill="none" xmlns="http://www.w3.org/2000/svg">
<path d="M225.8 1.19995H232.7L232.8 17.2H239.7V20.2H232.8V30C232.8 30.2 232.9 30.2999 233.2 30.2999C236.3 31.6999 238.6 32.8999 240.1 34.0999C239.6 36.0999 239 37.9 238.2 39.4C237.4 38.6 236.5 37.4999 235.5 36.0999C234.5 34.8999 233.6 33.6999 232.8 32.5999L233 75H226.1L226 41.7999C224 45.7999 221.3 50.3 218 55.5H216.1C222.2 45.6 225.4 33.8 225.6 20.2H217.1V17.2H225.9L225.8 1.19995ZM257.7 12.9L280 12.7999V15.7999L264.6 15.9C268.7 20.2 274.6 22.8999 282.3 23.7999C280.8 26.3999 280.5 28.9999 281.6 31.7999C279.5 31.3999 276.2 29.6 271.6 26.5V37.2H265.1V34.7999H253.2V37.5H246.7V24.5C245.7 25.3 244.4 26.2 242.9 27.2C240.6 28.8 238.8 30.0999 237.5 31.0999H235.6C242.5 25.0999 247.2 20.1 249.8 15.9H238.7V12.9H251.4C251.9 11.6999 252.5 9.89995 253.3 7.59995C250.5 7.99995 245.6 8.09995 238.7 7.89995V7.29995C246.1 6.89995 256.9 4.69995 271 0.699951C272.3 1.49995 274.1 2.79995 276.4 4.49995C276.9 4.89995 277.4 5.19995 277.9 5.39995C277.1 5.59995 276 5.79995 274.4 5.99995C269.8 6.39995 265.6 6.59995 261.7 6.59995C260.5 8.89995 259.3 10.9 257.7 12.9ZM246.7 37.9V40.9L271.3 40.7999V37.7999H278.2L278.3 68.3C278.8 70.7 275.6 72.8999 268.7 74.8999C267.7 73.8999 266.3 73.7 264.5 74.3L261.4 75.2L261 74.5999C268.9 71.7999 272.4 69.5 271.4 67.7L271.3 43.7L246.7 43.7999L246.8 74.5999H240.3L240.2 37.7999L246.7 37.9ZM263.1 15.9H255.8C254.5 17.5 252.6 19.3999 250.1 21.5999H253.2V23.7H265.1V21.5999H266.3C266 21.3999 265.7 20.7999 265.1 19.7999C264.3 18.2999 263.6 17.1 263.1 15.9ZM256.7 46.7V49.4H260.9V46.7H267.4L267.5 67.2H261V63.9H256.8V67.2H250.3L250.2 46.7H256.7ZM265.1 26.5H253.2V31.7999H265.1V26.5ZM260.9 52.3H256.7V60.9H260.9V52.3Z" fill="white"/>
<path d="M10.4 10.5H1.70001V7.49998L26.4 7.39997V10.4H17.7L17.8 31.1H25.1V34.1H17.8L17.9 57.8C20.8 56.4 23.8 54.1 27 51H27.4C23.6 59.3 15.3 65.2 2.79999 68.6C2.99999 66.2 2.29998 63.9 0.599976 61.5C3.69998 61.3 7.09999 60.9 10.8 60.3L10.7 34.2H2.70001V31.2H10.7L10.4 10.5ZM25.1 72.7H22.9C27.5 68.1 29.6 63 29.4 57.3H37.4C36.4 63.7 32.3 68.9 25.1 72.7ZM30 2.69998H36.5V5.69998L56.1 5.59998V2.59998H62.6L62.7 28.7H56.2V25.7H44.6C44.6 25.9 44.8 26.2 45.3 26.6C47.5 28 49.2 29.1 50.4 29.8C49.9 30.8 49.2 32 48.2 33.4L67.1 33.3V36.3L26.1 36.4V33.4L45.3 33.3C44.6 30.9 43.8 28.4 43.1 25.6H36.6V28H30.1L30 2.69998ZM42.5 69.1L42.4 53.1H35.9V55.5H29.4L29.3 38.9H35.8V41.9L55.4 41.8V38.8H61.9L62 55.4H55.5V53H49L49.1 69.6C48.9 72.2 45.7 74 39.7 75C39.2 74.4 38.5 74.1 37.5 74.1L32.1 74.7L31.7 73.8C39.1 72.4 42.7 70.8 42.5 69.1ZM55.5 50V44.7L35.9 44.8V50.1L55.5 50ZM36.6 22.8L56.2 22.7V8.49998L36.6 8.59998V13.9L53.3 13.8V16.8L36.6 16.9V22.8ZM54.1 55.4L54.8 55.1C57 61.8 60.6 65.5 65.7 66C64 67.4 63.8 70 65 73.7C58 71.4 54.3 65.3 54.1 55.4Z" fill="white"/>
<path d="M77.6 11.2H87.8V1.69995H95.1V11.2H102C102.2 9.39995 102.5 6.89995 102.7 3.49995H110.7C109.8 12.4 107.5 19.2999 103.9 24.2999H111.2V27.2999H101.4C99.2 30.0999 95.6 33.1999 90.5 36.7999H100.3V34.4H107.6L107.7 70.8999H100.4V66.8H89.5V73.3H82.2L82.1 42.5C81.4 42.9 80.5 43.4999 79.6 44.2999C77.7 45.4999 76.3 46.3 75.6 46.7H73.4C74.8 45.9 76.9 44.5 79.6 42.5C80.8 41.7 81.6 41.1 82.1 40.7V33.9H89.4V34.5C91.6 32.5 93.6 30.1 95.5 27.4L76.3 27.5V24.5H87.9V14.4H77.7L77.6 11.2ZM100.2 63.8L100.1 39.5H89.2V49.5999H97.2V52.5999H89.2V63.9L100.2 63.8ZM101.5 14H95V24.0999H97.2C98.9 21.3999 100.3 18 101.5 14ZM120.6 74.7H113.3L113.1 3.29995H120.4V6.89995H127.7V2.79995H135V15.2C134.8 21.5 131.4 25.9999 124.9 28.5999C131.7 29.7999 135.3 32.8 135.8 37.7L135.9 59C135.7 63 132.5 65.8999 126.5 67.8999C125.5 66.8999 124.6 66.6 123.6 67L120.7 67.5999L120.6 74.7ZM127.7 17.5V10.4H120.4L120.6 66.3999C125.7 64.9999 128.3 62.3 128.6 58.4L128.5 35.9C128.2 33.1 126.5 30.7 123.4 28.5C126 26.3 127.5 22.6 127.7 17.5Z" fill="white"/>
<path d="M160.3 3.1999H170.3C169.8 4.5999 168.9 6.1999 167.6 7.9999C168.9 8.9999 170.8 10.0999 173.4 11.1999C177.5 13.3999 180.8 15.0999 183.4 16.4999C183.4 19.0999 183.2 21.4999 182.7 23.8999C178.3 20.7999 173.8 16.7999 169.2 12.0999C168.2 10.6999 167.4 9.6999 166.9 9.0999C165.4 11.4999 162.4 14.8999 158.1 19.4999L157.7 20.0999L176.5 19.9999V22.9999L156.5 23.0999V21.5999C156.2 21.9999 155.7 22.3999 155 22.7999C153.2 24.7999 151.9 26.1999 151.2 26.9999H156.6V30.2999H159.7V26.6999H165.5L165.6 52.7999H159.8V49.4999H156.7V52.7999H150.9L150.8 27.2999C149.8 28.0999 148.9 28.7999 148.1 29.3999H145.4C154.4 20.7999 159.3 12.0999 160.3 3.1999ZM149 73.7999H146.3C151.4 68.9999 153.8 62.2999 153.5 53.5999H161.2C160.7 56.1999 160.1 58.3999 159.3 60.3999C160.1 60.9999 161.1 61.4999 162.4 61.8999C163.4 62.4999 164.5 62.9999 165.5 63.3999C164.7 64.7999 164 66.1999 163.2 67.5999C161.1 65.7999 159.6 64.0999 158.6 62.2999C157.3 64.0999 154.1 67.9999 149 73.7999ZM156.6 33.0999V46.3999H159.7V33.0999H156.6ZM169.3 53.4999H177.4C177.1 55.8999 176.6 57.8999 175.9 59.3999C178 62.9999 181.4 65.1999 186.3 66.1999C184 67.5999 183.2 70.3999 184 74.4999C178.9 71.6999 175.9 67.2999 175.1 61.1999C173.1 64.1999 168.7 68.3999 162.1 73.9999H159.8C166.2 69.3999 169.4 62.5999 169.3 53.4999ZM168.1 26.5999H173.9V30.1999H177V26.5999H182.8L182.9 52.3999H177.1V49.3999H174V52.3999H168.2L168.1 26.5999ZM177 33.0999H173.9V46.3999H177V33.0999ZM187.7 9.8999H195L195.2 60.8999H187.9L187.7 9.8999ZM206.5 2.3999L206.7 66.6999C206.4 68.6999 203.1 70.9999 196.7 73.5999C196.2 72.7999 195.2 72.5999 193.6 72.9999L189.8 74.1999L189.4 73.5999C196.1 71.3999 199.2 69.1999 199 66.9999L198.8 2.3999H206.5Z" fill="white"/>
<path d="M49.5 92.9999C49.5 93.1999 49.5 93.4999 49.4 93.6999C49.4 93.8999 49.3 94.1999 49.1 94.2999C49 94.4999 48.8 94.5999 48.5 94.7999C48.2 94.8999 47.9 94.9999 47.5 94.9999C47.3 94.9999 47.1 94.9999 46.9 94.8999C46.7 94.8999 46.5 94.7999 46.4 94.6999C46.2 94.5999 46.1 94.5999 46 94.4999C45.9 94.3999 45.8 94.2999 45.7 94.1999L46.1 93.6999C46.2 93.7999 46.3 93.7999 46.4 93.8999C46.5 93.9999 46.6 94.0999 46.7 94.1999C46.8 94.2999 47 94.3999 47.1 94.3999C47.2 94.4999 47.4 94.4999 47.5 94.4999C47.8 94.4999 48 94.3999 48.2 94.2999C48.4 94.0999 48.4 93.8999 48.4 93.6999V88.0999H49.5V92.9999Z" fill="white"/>
<path d="M56.1 88.2H57.2V95H56.1V88.2Z" fill="white"/>
<path d="M63.9 88.2H64.5L69 93.2H69.1V88.2H69.6V95.2H69.3L64.5 89.7V95.1H64V88.2H63.9Z" fill="white"/>
<path d="M80.1 88.4999C79.7 88.4999 79.3 88.5999 79 88.6999C78.7 88.7999 78.4 89.0999 78.1 89.2999C77.8 89.5999 77.7 89.8999 77.5 90.2999C77.4 90.6999 77.3 91.0999 77.3 91.5999C77.3 92.0999 77.4 92.4999 77.5 92.8999C77.7 93.2999 77.9 93.5999 78.1 93.8999C78.4 94.1999 78.7 94.3999 79 94.4999C79.4 94.5999 79.7 94.6999 80.2 94.6999C80.5 94.6999 80.8 94.6999 81 94.5999C81.2 94.4999 81.5 94.3999 81.6 94.2999V91.8999H80.3V91.4999H82.7V94.4999C82.5 94.5999 82.3 94.6999 82.1 94.7999C81.9 94.8999 81.7 94.9999 81.4 94.9999C81.2 95.0999 80.9 95.0999 80.6 95.0999C80.3 95.0999 80 95.0999 79.6 95.0999C79.2 95.0999 78.9 95.0999 78.5 94.9999C78.2 94.8999 77.8 94.7999 77.6 94.5999C77.3 94.3999 77 94.2999 76.8 93.9999C76.6 93.7999 76.4 93.4999 76.2 93.2999C76 92.9999 75.9 92.7999 75.8 92.4999C75.7 92.1999 75.7 91.8999 75.7 91.5999C75.7 91.2999 75.7 90.9999 75.8 90.6999C75.9 90.3999 76 90.0999 76.2 89.7999C76.4 89.4999 76.5 89.2999 76.8 89.0999C77 88.8999 77.3 88.6999 77.6 88.4999C77.9 88.2999 78.2 88.1999 78.5 88.0999C78.8 87.9999 79.2 87.9999 79.6 87.9999C80 87.9999 80.3 87.9999 80.6 88.0999C80.9 88.1999 81.2 88.2999 81.4 88.4999C81.7 88.6999 81.9 88.7999 82.1 89.0999C82.3 89.2999 82.5 89.4999 82.6 89.7999L82.1 90.0999C81.8 89.4999 81.5 89.0999 81.1 88.8999C81 88.5999 80.6 88.4999 80.1 88.4999Z" fill="white"/>
<path d="M96.4 88.2H98.7C99.4 88.2 100 88.3 100.5 88.4C101 88.5 101.4 88.7 101.8 89C102.2 89.3 102.5 89.7 102.7 90.1C102.9 90.5 103 91 103 91.5C103 92 102.9 92.4 102.7 92.9C102.5 93.3 102.3 93.7 101.9 94C101.6 94.3 101.2 94.6 100.7 94.7C100.2 94.9 99.6 95 99 95H96.5V88.2H96.4ZM97.6 94.5H98.8C99.2 94.5 99.5 94.4 99.9 94.3C100.2 94.2 100.5 94 100.8 93.7C101.1 93.4 101.3 93.1 101.4 92.8C101.5 92.4 101.6 92 101.6 91.5C101.6 91.1 101.5 90.7 101.4 90.3C101.3 89.9 101.1 89.6 100.8 89.4C100.6 89.1 100.3 88.9 99.9 88.8C99.6 88.7 99.2 88.6 98.8 88.6H97.6V94.5Z" fill="white"/>
<path d="M109.2 88.2H110.3V92.6C110.3 92.9 110.3 93.2 110.4 93.4C110.5 93.7 110.6 93.9 110.8 94.1C111 94.3 111.2 94.4 111.5 94.6C111.8 94.7 112.1 94.8 112.4 94.8C112.7 94.8 113 94.7 113.3 94.6C113.6 94.5 113.8 94.3 114 94.1C114.2 93.9 114.3 93.7 114.4 93.4C114.5 93.1 114.5 92.9 114.5 92.6V88.2H115V92.6C115 92.9 114.9 93.3 114.8 93.6C114.7 93.9 114.5 94.2 114.3 94.4C114.1 94.6 113.7 94.8 113.4 94.9C113 95 112.6 95.1 112 95.1C111.5 95.1 111.1 95 110.8 94.9C110.4 94.8 110.1 94.6 109.9 94.3C109.7 94.1 109.5 93.8 109.3 93.5C109.2 93.2 109.1 92.9 109.1 92.5V88.2H109.2Z" fill="white"/>
<path d="M129.8 91.5999C129.8 92.0999 129.9 92.4999 130 92.8999C130.1 93.2999 130.3 93.5999 130.6 93.8999C130.9 94.1999 131.1 94.3999 131.5 94.4999C131.8 94.5999 132.2 94.6999 132.6 94.6999C132.8 94.6999 133.1 94.6999 133.3 94.5999C133.5 94.4999 133.7 94.3999 133.9 94.1999C134.1 94.0999 134.3 93.8999 134.4 93.6999C134.6 93.4999 134.7 93.2999 134.8 93.0999L135.3 93.3999C135.2 93.5999 135 93.7999 134.8 94.0999C134.6 94.2999 134.4 94.4999 134.1 94.6999C133.8 94.8999 133.6 94.9999 133.2 95.0999C132.9 95.1999 132.5 95.1999 132.1 95.1999C131.5 95.1999 131 95.0999 130.6 94.8999C130.1 94.6999 129.7 94.4999 129.4 94.0999C129.1 93.7999 128.8 93.3999 128.6 92.9999C128.4 92.5999 128.3 92.0999 128.3 91.5999C128.3 91.2999 128.3 90.9999 128.4 90.6999C128.5 90.3999 128.6 90.0999 128.8 89.7999C129 89.4999 129.1 89.2999 129.4 89.0999C129.6 88.8999 129.9 88.6999 130.2 88.4999C130.5 88.2999 130.8 88.1999 131.1 88.0999C131.4 87.9999 131.8 87.9999 132.2 87.9999C132.6 87.9999 132.9 87.9999 133.2 88.0999C133.5 88.1999 133.8 88.2999 134 88.4999C134.3 88.6999 134.5 88.7999 134.7 89.0999C134.9 89.2999 135.1 89.4999 135.2 89.7999L134.7 90.0999C134.4 89.4999 134.1 89.0999 133.7 88.8999C133.3 88.5999 132.9 88.4999 132.5 88.4999C132.1 88.4999 131.7 88.5999 131.4 88.6999C131.1 88.7999 130.8 88.9999 130.5 89.2999C130.2 89.5999 130 89.8999 129.9 90.2999C129.8 90.6999 129.8 91.0999 129.8 91.5999Z" fill="white"/>
<path d="M144.5 87.9999L147.7 94.9999H146.5L145.5 92.6999H142.6L141.5 94.9999H140.9L144.2 87.9999H144.5ZM142.7 92.2999H145.2L144 89.5999L142.7 92.2999Z" fill="white"/>
<path d="M153.5 88.2H154.7L157.4 93.4H157.5L160.1 88.2H161.3V95H160.1V89.4L157.3 95H157.1L154.3 89.5H154.2V95H153.7V88.2H153.5Z" fill="white"/>
<path d="M167.8 88.2H170.5C170.9 88.2 171.2 88.2 171.5 88.3C171.8 88.4 172.1 88.5 172.3 88.6C172.5 88.7 172.7 88.9 172.8 89.1C172.9 89.3 173 89.5 173 89.8C173 90 173 90.2 172.9 90.3C172.9 90.4 172.8 90.6 172.7 90.7C172.6 90.8 172.5 90.9 172.3 91.1C172.1 91.2 171.9 91.3 171.7 91.4C171.9 91.4 172.2 91.5 172.4 91.6C172.6 91.7 172.8 91.8 172.9 92C173 92.1 173.1 92.3 173.2 92.5C173.3 92.7 173.3 92.9 173.3 93.1C173.3 93.4 173.2 93.6 173.1 93.8C173 94 172.8 94.2 172.6 94.4C172.4 94.6 172.1 94.7 171.8 94.8C171.5 94.9 171.2 94.9 170.8 94.9H167.6V88.2H167.8ZM168.9 91.2H170.4C170.6 91.2 170.8 91.2 171 91.1C171.2 91 171.3 90.9 171.5 90.8C171.6 90.7 171.7 90.5 171.8 90.4C171.9 90.2 171.9 90.1 171.9 89.9C171.9 89.7 171.9 89.5 171.8 89.4C171.7 89.2 171.6 89.1 171.4 89C171.2 88.9 171 88.8 170.8 88.7C170.6 88.6 170.3 88.6 169.9 88.6H169V91.2H168.9ZM168.9 94.5H170.1C170.4 94.5 170.7 94.5 171 94.4C171.2 94.3 171.4 94.2 171.6 94.1C171.8 94 171.9 93.8 172 93.7C172.1 93.5 172.1 93.4 172.1 93.2C172.1 93 172.1 92.8 172 92.6C171.9 92.4 171.8 92.3 171.7 92.1C171.5 92 171.3 91.9 171.1 91.8C170.8 91.7 170.5 91.7 170.2 91.7H169V94.5H168.9Z" fill="white"/>
<path d="M179.6 88.2H182C182.4 88.2 182.8 88.2 183.1 88.3C183.4 88.4 183.7 88.5 183.9 88.7C184.1 88.9 184.3 89 184.4 89.3C184.5 89.5 184.6 89.8 184.6 90C184.6 90.2 184.6 90.4 184.5 90.6C184.4 90.8 184.3 91 184.2 91.1C184.1 91.2 183.9 91.4 183.7 91.5C183.5 91.6 183.3 91.7 183 91.8L185.5 95.1H184.2L181.8 91.9H181V95.1H179.9V88.2H179.6ZM180.7 91.4H181.4C181.7 91.4 181.9 91.4 182.1 91.3C182.3 91.2 182.5 91.1 182.7 91C182.9 90.9 183 90.7 183.1 90.5C183.2 90.3 183.2 90.1 183.2 89.9C183.2 89.7 183.2 89.5 183.1 89.3C183 89.1 182.9 89 182.8 88.9C182.7 88.8 182.5 88.7 182.3 88.6C182.1 88.5 181.9 88.5 181.7 88.5H180.7V91.4V91.4Z" fill="white"/>
<path d="M191 88.2H192.1V95H191V88.2Z" fill="white"/>
<path d="M198.8 88.2H201.1C201.8 88.2 202.4 88.3 202.9 88.4C203.4 88.5 203.8 88.7 204.2 89C204.6 89.3 204.9 89.7 205.1 90.1C205.3 90.5 205.4 91 205.4 91.5C205.4 92 205.3 92.4 205.1 92.9C204.9 93.3 204.7 93.7 204.3 94C203.9 94.3 203.6 94.6 203.1 94.7C202.6 94.9 202 95 201.4 95H198.9V88.2H198.8ZM200 94.5H201.2C201.6 94.5 201.9 94.4 202.3 94.3C202.6 94.2 202.9 94 203.2 93.7C203.5 93.4 203.7 93.1 203.8 92.8C203.9 92.4 204 92 204 91.5C204 91.1 203.9 90.7 203.8 90.3C203.7 89.9 203.5 89.6 203.2 89.4C203 89.1 202.7 88.9 202.3 88.8C202 88.7 201.6 88.6 201.2 88.6H200V94.5Z" fill="white"/>
<path d="M215.6 88.4999C215.2 88.4999 214.8 88.5999 214.5 88.6999C214.2 88.7999 213.9 89.0999 213.6 89.2999C213.3 89.5999 213.2 89.8999 213 90.2999C212.9 90.6999 212.8 91.0999 212.8 91.5999C212.8 92.0999 212.9 92.4999 213 92.8999C213.2 93.2999 213.4 93.5999 213.6 93.8999C213.9 94.1999 214.2 94.3999 214.5 94.4999C214.9 94.5999 215.2 94.6999 215.7 94.6999C216 94.6999 216.3 94.6999 216.5 94.5999C216.7 94.4999 217 94.3999 217.1 94.2999V91.8999H215.8V91.4999H218.2V94.4999C218 94.5999 217.8 94.6999 217.6 94.7999C217.4 94.8999 217.2 94.9999 216.9 94.9999C216.7 95.0999 216.4 95.0999 216.1 95.0999C215.8 95.0999 215.5 95.0999 215.1 95.0999C214.7 95.0999 214.4 95.0999 214 94.9999C213.7 94.8999 213.3 94.7999 213.1 94.5999C212.8 94.3999 212.5 94.2999 212.3 93.9999C212.1 93.7999 211.9 93.4999 211.7 93.2999C211.5 92.9999 211.4 92.7999 211.3 92.4999C211.2 92.1999 211.2 91.8999 211.2 91.5999C211.2 91.2999 211.2 90.9999 211.3 90.6999C211.4 90.3999 211.5 90.0999 211.7 89.7999C211.9 89.4999 212 89.2999 212.3 89.0999C212.5 88.8999 212.8 88.6999 213.1 88.4999C213.4 88.2999 213.7 88.1999 214 88.0999C214.3 87.9999 214.7 87.9999 215.1 87.9999C215.5 87.9999 215.8 87.9999 216.1 88.0999C216.4 88.1999 216.7 88.2999 216.9 88.4999C217.2 88.6999 217.4 88.7999 217.6 89.0999C217.8 89.2999 218 89.4999 218.1 89.7999L217.6 90.0999C217.3 89.4999 217 89.0999 216.6 88.8999C216.5 88.5999 216.1 88.4999 215.6 88.4999Z" fill="white"/>
<path d="M229.6 88.1999V88.5999H226V90.9999H228.4V91.3999H226V94.4999H229.6V94.8999H224.9V88.0999H229.6V88.1999Z" fill="white"/>
<path d="M236.7 91.6H278.4" stroke="#0D2625" stroke-width="0.2835" stroke-miterlimit="10"/>
<path d="M2.29999 91.6H43.9" stroke="#0D2625" stroke-width="0.2835" stroke-miterlimit="10"/>
</svg>
