<svg width="735" height="20" viewBox="0 0 735 20" fill="none" xmlns="http://www.w3.org/2000/svg">
<path d="M179.9 14.2998C179.9 14.9998 179.8 15.5997 179.7 16.1997C179.6 16.7997 179.3 17.3998 179 17.8998C178.6 18.3998 178.1 18.7997 177.4 19.0997C176.7 19.3997 175.8 19.5997 174.7 19.5997C174.1 19.5997 173.5 19.4998 173 19.3998C172.5 19.2998 172 19.0998 171.6 18.8998C171.2 18.6998 170.8 18.4998 170.5 18.2998C170.2 18.0998 169.9 17.7997 169.6 17.5997L170.6 16.2998C170.8 16.4998 171 16.6998 171.3 16.8998C171.6 17.0998 171.9 17.3997 172.2 17.5997C172.5 17.7997 172.9 17.9997 173.2 18.1997C173.6 18.3997 173.9 18.3998 174.3 18.3998C175.1 18.3998 175.7 18.1998 176.1 17.7998C176.5 17.3998 176.7 16.7997 176.7 16.0997V1.19971H179.8V14.2998H179.9Z" fill="#C39B62"/>
<path d="M197.4 1.3999H200.4V19.4999H197.4V1.3999Z" fill="#C39B62"/>
<path d="M218.3 1.3999H220L231.9 14.6998H232V1.3999H233.3V19.9999H232.6L219.7 5.29993H219.6V19.5999H218.2V1.3999H218.3Z" fill="#C39B62"/>
<path d="M261.5 2.29993C260.4 2.29993 259.4 2.4999 258.5 2.8999C257.6 3.2999 256.8 3.79985 256.1 4.59985C255.4 5.29985 254.9 6.19983 254.5 7.19983C254.1 8.19983 253.9 9.39985 253.9 10.5999C253.9 11.8999 254.1 12.9999 254.5 14.0999C254.9 15.1999 255.5 15.9998 256.2 16.6998C256.9 17.3998 257.7 17.9999 258.7 18.3999C259.7 18.7999 260.7 18.9999 261.8 18.9999C262.6 18.9999 263.3 18.8998 263.9 18.6998C264.5 18.4998 265.1 18.1999 265.6 17.7999V11.3999H262.2V10.2999H268.7V18.2999C268.2 18.5999 267.6 18.7999 267.1 19.0999C266.6 19.2999 266 19.4999 265.4 19.5999C264.8 19.6999 264.1 19.8999 263.3 19.8999C262.6 19.9999 261.7 19.9999 260.8 19.9999C259.8 19.9999 258.8 19.8998 257.9 19.6998C257 19.4998 256.2 19.1998 255.4 18.6998C254.6 18.2998 253.9 17.7998 253.3 17.1998C252.7 16.5998 252.2 15.9999 251.7 15.2999C251.3 14.5999 250.9 13.8999 250.7 13.0999C250.5 12.2999 250.3 11.4999 250.3 10.5999C250.3 9.79985 250.4 8.89985 250.6 8.09985C250.8 7.29985 251.1 6.49993 251.6 5.79993C252 5.09993 252.5 4.39993 253.1 3.79993C253.7 3.19993 254.4 2.69993 255.1 2.29993C255.9 1.89993 256.7 1.49993 257.6 1.29993C258.5 1.09993 259.4 0.899902 260.4 0.899902C261.4 0.899902 262.2 0.999927 263.1 1.29993C263.9 1.59993 264.7 1.89993 265.3 2.29993C266 2.69993 266.6 3.19993 267.1 3.79993C267.6 4.39993 268.1 4.89985 268.4 5.59985L267.1 6.49988C266.3 4.99988 265.5 3.99993 264.5 3.29993C263.7 2.59993 262.7 2.29993 261.5 2.29993Z" fill="#C39B62"/>
<path d="M304.8 1.3999H310.8C312.7 1.3999 314.3 1.5999 315.6 1.8999C316.9 2.1999 318.1 2.79985 319 3.59985C320 4.49985 320.8 5.49985 321.3 6.59985C321.8 7.69985 322.1 8.99993 322.1 10.2999C322.1 11.5999 321.9 12.7999 321.4 13.8999C320.9 14.9999 320.3 15.9999 319.4 16.7999C318.5 17.5999 317.4 18.2999 316.1 18.7999C314.8 19.2999 313.3 19.4999 311.6 19.4999H304.8V1.3999ZM307.9 18.1998H311.1C312.1 18.1998 313.1 17.9998 314 17.6998C314.9 17.3998 315.7 16.8998 316.4 16.1998C317.1 15.4998 317.6 14.6998 318 13.6998C318.4 12.6998 318.6 11.5999 318.6 10.2999C318.6 9.19993 318.4 8.19983 318.1 7.19983C317.7 6.29983 317.2 5.49993 316.6 4.79993C315.9 4.09993 315.2 3.59983 314.3 3.19983C313.4 2.79983 312.4 2.59985 311.3 2.59985H308V18.1998H307.9Z" fill="#C39B62"/>
<path d="M338.8 1.3999H341.8V13.1998C341.8 13.9998 341.9 14.6999 342.2 15.3999C342.5 16.0999 342.8 16.6998 343.3 17.1998C343.8 17.6998 344.4 18.0999 345.1 18.3999C345.8 18.6999 346.6 18.7999 347.4 18.7999C348.3 18.7999 349 18.6999 349.7 18.3999C350.4 18.0999 351 17.6998 351.5 17.1998C352 16.6998 352.4 16.0999 352.6 15.3999C352.9 14.6999 353 13.9998 353 13.1998V1.3999H354.3V13.1998C354.3 14.0998 354.1 14.9999 353.8 15.7999C353.5 16.5999 353 17.2999 352.4 17.9999C351.8 18.5999 350.9 19.0999 349.9 19.4999C348.9 19.8999 347.7 19.9999 346.3 19.9999C345.1 19.9999 343.9 19.7999 343 19.4999C342 19.0999 341.2 18.5999 340.6 17.9999C339.9 17.3999 339.5 16.6999 339.1 15.7999C338.8 14.9999 338.6 14.0999 338.6 13.0999V1.3999H338.8Z" fill="#C39B62"/>
<path d="M396.6 18.7999C397 18.7999 397.5 18.6999 397.9 18.5999C398.3 18.4999 398.7 18.2999 399.1 18.0999C399.4 17.8999 399.7 17.5998 399.9 17.1998C400.1 16.7998 400.2 16.3999 400.2 15.9999C400.2 15.3999 400.1 14.8999 399.8 14.4999C399.5 14.0999 399.1 13.6999 398.7 13.2999C398.2 12.8999 397.7 12.5999 397.1 12.2999C396.5 11.9999 395.9 11.6999 395.3 11.2999C394.7 10.9999 394.1 10.5999 393.5 10.2999C392.9 9.89993 392.4 9.59985 391.9 9.09985C391.4 8.69985 391.1 8.19983 390.8 7.69983C390.5 7.19983 390.4 6.5999 390.4 5.8999C390.4 5.1999 390.5 4.59988 390.8 3.99988C391.1 3.39988 391.4 2.89988 391.9 2.49988C392.4 2.09988 393 1.69988 393.8 1.49988C394.6 1.29988 395.4 1.09985 396.3 1.09985C397.2 1.09985 397.9 1.1999 398.6 1.3999C399.3 1.5999 399.9 1.89983 400.4 2.19983C400.9 2.59983 401.3 2.99988 401.7 3.49988C402.1 3.99988 402.3 4.59993 402.6 5.29993L401 5.99988C400.8 5.39988 400.6 4.89988 400.3 4.49988C400 3.99988 399.7 3.59993 399.3 3.29993C398.9 2.99993 398.5 2.69988 397.9 2.49988C397.4 2.29988 396.8 2.19983 396.2 2.19983C395.6 2.19983 395.1 2.2999 394.7 2.3999C394.3 2.5999 393.9 2.79988 393.6 2.99988C393.3 3.29988 393.1 3.5999 393 3.8999C392.9 4.1999 392.8 4.5999 392.8 4.8999C392.8 5.3999 392.9 5.79983 393.2 6.19983C393.5 6.59983 393.9 6.99993 394.4 7.29993C394.9 7.69993 395.4 7.99993 396 8.29993C396.6 8.59993 397.2 8.99993 397.9 9.29993C398.5 9.59993 399.2 9.9999 399.8 10.3999C400.4 10.7999 401 11.1999 401.4 11.5999C401.9 11.9999 402.3 12.4999 402.6 12.9999C402.9 13.4999 403 14.0998 403 14.6998C403 15.3998 402.9 16.0998 402.6 16.6998C402.3 17.2998 401.9 17.8999 401.4 18.3999C400.9 18.8999 400.2 19.1999 399.4 19.4999C398.6 19.7999 397.6 19.8999 396.6 19.8999C395.7 19.8999 394.9 19.7999 394.3 19.5999C393.6 19.3999 393 19.0999 392.5 18.7999C392 18.3999 391.5 17.9999 391.2 17.4999C390.8 16.9999 390.5 16.3998 390.3 15.6998L391.9 14.9999C392.1 15.5999 392.3 16.0999 392.7 16.5999C393 17.0999 393.4 17.4999 393.8 17.7999C394.2 18.0999 394.7 18.3999 395.2 18.4999C395.4 18.6999 396 18.7999 396.6 18.7999Z" fill="#C39B62"/>
<path d="M432.6 1.3999V2.59985H423V9.09985H429.4V10.2999H423V18.3999H432.6V19.5999H420V1.49988H432.6V1.3999Z" fill="#C39B62"/>
<path d="M449.1 1.3999H452.1V18.3999H461.2V19.5999H449V1.3999H449.1Z" fill="#C39B62"/>
<path d="M489.5 1.3999V2.59985H479.9V9.09985H486.3V10.2999H479.9V18.3999H489.5V19.5999H476.9V1.49988H489.5V1.3999Z" fill="#C39B62"/>
<path d="M508.8 10.4999C508.8 11.7999 509 12.8999 509.4 13.8999C509.8 14.8999 510.3 15.7999 511 16.4999C511.7 17.1999 512.5 17.6999 513.4 18.0999C514.3 18.4999 515.3 18.6998 516.4 18.6998C517 18.6998 517.7 18.5999 518.2 18.2999C518.8 18.0999 519.3 17.6999 519.8 17.2999C520.3 16.8999 520.8 16.4999 521.2 15.9999C521.6 15.4999 521.9 14.9999 522.2 14.4999L523.5 15.2999C523.1 15.8999 522.7 16.4999 522.2 17.0999C521.7 17.6999 521.1 18.1999 520.4 18.5999C519.7 18.9999 519 19.3999 518.1 19.5999C517.3 19.8999 516.3 19.9999 515.3 19.9999C513.8 19.9999 512.4 19.6998 511.2 19.1998C510 18.6998 508.9 17.9998 508 17.1998C507.1 16.2998 506.4 15.2998 506 14.1998C505.5 13.0998 505.3 11.7999 505.3 10.5999C505.3 9.79985 505.4 8.89985 505.6 8.09985C505.8 7.29985 506.1 6.49993 506.6 5.79993C507 5.09993 507.5 4.3999 508.1 3.8999C508.7 3.2999 509.4 2.7999 510.1 2.3999C510.9 1.9999 511.7 1.5999 512.6 1.3999C513.5 1.1999 514.4 1.09985 515.5 1.09985C516.5 1.09985 517.4 1.19988 518.2 1.49988C519 1.79988 519.8 2.09988 520.4 2.49988C521.1 2.89988 521.7 3.39988 522.2 3.99988C522.7 4.59988 523.2 5.09993 523.5 5.79993L522.2 6.69983C521.4 5.19983 520.6 4.19988 519.7 3.49988C518.8 2.79988 517.7 2.49988 516.5 2.49988C515.5 2.49988 514.5 2.69985 513.6 3.09985C512.7 3.49985 511.9 3.99983 511.2 4.69983C510.5 5.39983 510 6.29993 509.6 7.29993C509 8.09993 508.8 9.19988 508.8 10.4999Z" fill="#C39B62"/>
<path d="M554.8 1.3999V2.59985H548.2V19.5999H545.2V2.59985H538.6V1.3999H554.8Z" fill="#C39B62"/>
<path d="M624 11.2998H734.9" stroke="#C39B62" stroke-width="0.9921" stroke-miterlimit="10"/>
<path d="M0.199951 10.3999H111" stroke="#C39B62" stroke-width="0.9921" stroke-miterlimit="10"/>
</svg>
