<svg width="278" height="72" viewBox="0 0 278 72" fill="none" xmlns="http://www.w3.org/2000/svg">
<path d="M56.7001 16.1999L60.1001 4.8999L59.2001 2.3999C59.0001 1.7999 58.6001 1.59991 58.0001 1.59991H57.1001V1.3999H63.8001V1.59991H62.6001C62.0001 1.59991 61.9001 1.99991 62.1001 2.69991L66.4001 16.1999L70.6002 2.3999C70.7002 1.9999 70.8002 1.59991 70.1002 1.59991H68.2001V1.3999H73.4001V1.59991H71.8001C71.2001 1.59991 71.0001 1.9999 70.9001 2.3999L65.3001 20.9999L60.3001 5.3999L55.6001 20.9999L49.5001 2.3999C49.3001 1.7999 48.9001 1.59991 48.3001 1.59991H47.4001V1.3999H54.0001V1.59991H52.8001C52.2001 1.59991 52.0001 1.99991 52.3001 2.69991L56.7001 16.1999Z" fill="#C69E62"/>
<path d="M82.8 7C85.7 7 88.2 9.1 88.8 11.7L78.8 15.3C79.4 18.9 81.8 20.4 84 20.4C85.9 20.4 87.8 19.3 88.4 17.8L88.5 17.9C87.7 20 85.5001 21.3 83.1001 21.3C79.2001 21.3 76.3 18.3 76.3 14.4C76.4 10.2 79.1 7 82.8 7ZM78.8 15.1L86.5 12.3C86.1 9.5 84.2 6.8 81.9 7.3C79.2 7.9 78.4 12.6 78.8 15.1Z" fill="#C69E62"/>
<path d="M98.3 20C98.3 20.5 98.3 20.8 98.9 20.8H100.1V21H94.3V20.8H95.4C96 20.8 96 20.4 96 20V2.89995C96 2.29995 95.7 1.99995 95.3 1.99995C95 1.99995 94.7 2.09996 94.3 2.29996V2.09996L97.9 0.399947C98.2 0.199947 98.3 0.299959 98.3 0.599959V20V20Z" fill="#C69E62"/>
<path d="M126.5 20.6C129.3 20.6 130.5 16.8 130.5 14.4C130.5 11.6 128.9 7.3 125.7 7.3C123.9 7.3 122.6 9.2 122.1 10.7C117.5 13.5 117.7 21.2 111.7 21.2C107.9 21.2 104.8 18.2 104.8 14.3C104.8 10.4 107.2 7 111.4 7C114.1 7 116.6 8.5 117.3 11.2L115.3 12.2C115 10.2 113.8 7.3 111.4 7.3C108.3 7.3 107.2 11.2 107.2 13.7C107.2 17.2 108.9 20.5 112.8 20.5C119.2 20.5 117.6 7 126.3 7C130.2 7 133.3 10.2 133.3 14C133.3 17.8 130.2 21 126.3 21C122.7 21 119.6 18.3 119.3 14.7C120 13.6 121 12.5 121.9 11.7C121.1 14.6 122.9 20.6 126.5 20.6Z" fill="#C69E62"/>
<path d="M146.5 7.79996C145.3 7.79996 143.7 8.79996 142 10.1V19.8999C142 20.3999 142 20.7 142.6 20.7H143.8V20.8999H138V20.7H139.1C139.7 20.7 139.7 20.2999 139.7 19.8999V9.39995C139.7 8.79995 139.4 8.49995 139 8.49995C138.7 8.49995 138.4 8.59996 138 8.79996V8.59996L141.6 6.89995C141.9 6.69995 142 6.79996 142 7.09996V9.59996C143.3 8.69996 146.4 6.79996 147 6.79996C149.2 6.79996 150.4 7.99996 150.9 9.59996C152.3 8.69996 155.2 6.79996 155.7 6.79996C158.7 6.79996 159.9 8.99995 159.9 11.6999V19.8999C159.9 20.3999 159.9 20.7 160.5 20.7H161.7V20.8999H155.9V20.7H157C157.6 20.7 157.6 20.2999 157.6 19.8999V11.3C157.6 8.79996 156.6 7.69995 155.3 7.69995C154.2 7.69995 152.5 8.59995 150.9 9.89995C151.1 10.3999 151.1 11.0999 151.1 11.6999V19.8999C151.1 20.3999 151.1 20.7 151.7 20.7H152.9V20.8999H147V20.7H148.1C148.7 20.7 148.7 20.2999 148.7 19.8999V11.3C148.8 8.89996 147.8 7.79996 146.5 7.79996Z" fill="#C69E62"/>
<path d="M173.4 7C176.3 7 178.8 9.1 179.4 11.7L169.4 15.3C170 18.9 172.4 20.4 174.6 20.4C176.5 20.4 178.4 19.3 179 17.8L179.1 17.9C178.3 20 176.1 21.3 173.7 21.3C169.8 21.3 166.9 18.3 166.9 14.4C167 10.2 169.7 7 173.4 7ZM169.4 15.1L177.1 12.3C176.7 9.5 174.8 6.8 172.5 7.3C169.8 7.9 169 12.6 169.4 15.1Z" fill="#C69E62"/>
<path d="M199.1 1.3999H213.3L214.1 4.59991H213.9C212.9 2.89991 211.2 1.59991 209.3 1.59991H207.5V19.9999C207.5 20.4999 207.5 20.7999 208.1 20.7999H209.3V20.9999H203.2V20.7999H204.3C204.9 20.7999 204.9 20.3999 204.9 19.9999V1.59991H203.1C201.1 1.59991 199.5 2.99991 198.5 4.59991H198.3L199.1 1.3999Z" fill="#C69E62"/>
<path d="M222.5 7C226.4 7 229.5 10.2 229.5 14C229.5 17.9 226.4 21 222.5 21C218.6 21 215.4 17.8 215.4 14C215.5 10.1 218.7 7 222.5 7ZM218 13.5C218 16.7 219.8 20.7 222.8 20.7C225.5 20.7 226.9 17.5 226.9 14.6C226.9 11.3 225.1 7.39999 222.1 7.39999C219.4 7.39999 218 10.6 218 13.5Z" fill="#C69E62"/>
<path d="M0.400051 62.6V62.4H1.50005C2.10005 62.4 2.10005 62 2.10005 61.6V44C2.10005 43.5 2.10005 43.2 1.50005 43.2H0.300049V43H8.00005C13.4 43 17.9001 47.4 17.9001 52.8C17.9001 58.2 13.8001 62.6 8.30005 62.6H0.400051ZM4.80005 43.3V62.2H6.40005C12.1001 62.2 15.2 58.5 15.2 52.8C15.2 47 12.1001 43.3 6.40005 43.3H4.80005V43.3Z" fill="#C69E62"/>
<path d="M32.0001 48.5999C35.9001 48.5999 39.0001 51.7999 39.0001 55.5999C39.0001 59.4999 35.9001 62.5999 32.0001 62.5999C28.1001 62.5999 24.9001 59.3999 24.9001 55.5999C24.9001 51.6999 28.1001 48.5999 32.0001 48.5999ZM27.4001 55.0999C27.4001 58.2999 29.2001 62.2998 32.2001 62.2998C34.9001 62.2998 36.3001 59.0998 36.3001 56.1998C36.3001 52.8998 34.5001 48.9998 31.5001 48.9998C28.8001 48.9998 27.4001 52.1999 27.4001 55.0999Z" fill="#C69E62"/>
<path d="M44.2001 49.5999C43.9001 48.9999 43.6001 48.7999 43.0001 48.7999H42.4001V48.5999H48.3001V48.7999H47.3001C46.7001 48.7999 46.6001 49.1998 46.8001 49.6998L51.1001 59.1998L53.3001 53.6998L51.4001 49.5999C51.1001 48.9999 50.8001 48.7999 50.2001 48.7999H49.6001V48.5999H55.5001V48.7999H54.5001C53.9001 48.7999 53.8001 49.1998 54.0001 49.6998L58.3001 59.1998L62.2001 49.5999C62.4001 49.1999 62.3001 48.7999 61.7001 48.7999H60.5001V48.5999H64.3001V48.7999H63.5001C62.9001 48.7999 62.8001 49.1999 62.6001 49.5999L57.3001 62.5999L53.5001 54.1998L50.1001 62.5999L44.2001 49.5999Z" fill="#C69E62"/>
<path d="M78.7 49.4999C77.5 49.4999 75.9 50.4999 74.2 51.7999V61.5999C74.2 62.0999 74.2 62.3999 74.8 62.3999H76V62.5999H70.2V62.3999H71.3C71.9 62.3999 71.8999 61.9999 71.8999 61.5999V51.0999C71.8999 50.4999 71.6 50.1999 71.2 50.1999C70.9 50.1999 70.6 50.2999 70.2 50.4999V50.2999L73.8 48.5999C74.1 48.3999 74.2 48.4999 74.2 48.7999V51.2999C75.5 50.3999 78.6 48.4999 79.2 48.4999C82.1 48.4999 83.3999 50.6999 83.3999 53.3999V61.5999C83.3999 62.0999 83.4 62.3999 84 62.3999H85.2V62.5999H79.3999V62.3999H80.5C81.1 62.3999 81.1 61.9999 81.1 61.5999V52.9999C81 50.4999 80 49.4999 78.7 49.4999Z" fill="#C69E62"/>
<path d="M90.4001 48.6H92.6002V47.2C92.6002 46.6 92.4002 46.3 92.0002 46.3C91.7002 46.3 91.3001 46.4 90.9001 46.6V46.4L94.5002 44.7C94.8002 44.5 94.9001 44.6 94.9001 44.9V48.6H98.9001V48.8H94.9001V59C94.9001 60.5 95.8001 61.8 97.2001 61.8C98.0001 61.8 98.9001 61.4 99.4001 60.7C98.8001 62 97.3002 62.6 96.0002 62.6C93.5002 62.6 92.6002 60.6 92.6002 58.4V48.7H90.4001V48.6Z" fill="#C69E62"/>
<path d="M110.8 48.5999C114.7 48.5999 117.8 51.7999 117.8 55.5999C117.8 59.4999 114.7 62.5999 110.8 62.5999C106.9 62.5999 103.7 59.3999 103.7 55.5999C103.8 51.6999 106.9 48.5999 110.8 48.5999ZM106.3 55.0999C106.3 58.2999 108.1 62.2998 111.1 62.2998C113.8 62.2998 115.2 59.0998 115.2 56.1998C115.2 52.8998 113.4 48.9998 110.4 48.9998C107.7 48.9998 106.3 52.1999 106.3 55.0999Z" fill="#C69E62"/>
<path d="M123 49.5999C122.7 48.9999 122.4 48.7999 121.8 48.7999H121.2V48.5999H127.1V48.7999H126.1C125.5 48.7999 125.4 49.1998 125.6 49.6998L129.9 59.1998L132.1 53.6998L130.2 49.5999C129.9 48.9999 129.6 48.7999 129 48.7999H128.4V48.5999H134.3V48.7999H133.3C132.7 48.7999 132.6 49.1998 132.8 49.6998L137.1 59.1998L141 49.5999C141.2 49.1999 141.1 48.7999 140.5 48.7999H139.3V48.5999H143.1V48.7999H142.3C141.7 48.7999 141.6 49.1999 141.4 49.5999L136.1 62.5999L132.3 54.1998L128.9 62.5999L123 49.5999Z" fill="#C69E62"/>
<path d="M157.5 49.4999C156.3 49.4999 154.7 50.4999 153 51.7999V61.5999C153 62.0999 153 62.3999 153.6 62.3999H154.8V62.5999H149V62.3999H150.1C150.7 62.3999 150.7 61.9999 150.7 61.5999V51.0999C150.7 50.4999 150.4 50.1999 150 50.1999C149.7 50.1999 149.4 50.2999 149 50.4999V50.2999L152.6 48.5999C152.9 48.3999 153 48.4999 153 48.7999V51.2999C154.3 50.3999 157.4 48.4999 158 48.4999C160.9 48.4999 162.2 50.6999 162.2 53.3999V61.5999C162.2 62.0999 162.2 62.3999 162.8 62.3999H164V62.5999H158.2V62.3999H159.3C159.9 62.3999 159.9 61.9999 159.9 61.5999V52.9999C159.8 50.4999 158.9 49.4999 157.5 49.4999Z" fill="#C69E62"/>
<path d="M181.5 62.6V62.4H182.6C183.2 62.4 183.2 62 183.2 61.6V44C183.2 43.5 183.2 43.2 182.6 43.2H181.4V43H187.5V43.2H186.4C185.8 43.2 185.8 43.6 185.8 44V62.3H190.1C192.3 62.3 193.8 61 194.9 59.2L194.1 62.6H181.5Z" fill="#C69E62"/>
<path d="M204.4 61.5999C204.4 62.0999 204.4 62.3999 205 62.3999H206.2V62.5999H200.4V62.3999H201.5C202.1 62.3999 202.1 61.9999 202.1 61.5999V51.0999C202.1 50.4999 201.8 50.1999 201.4 50.1999C201.1 50.1999 200.8 50.2999 200.4 50.4999V50.2999L204 48.5999C204.3 48.3999 204.4 48.4999 204.4 48.7999V61.5999V61.5999ZM201.8 45.1999C201.8 44.3999 202.4 43.8999 203.1 43.8999C203.9 43.8999 204.4 44.3999 204.4 45.1999C204.4 45.9999 203.9 46.4999 203.1 46.4999C202.4 46.4999 201.8 45.9999 201.8 45.1999Z" fill="#C69E62"/>
<path d="M224.4 49.5999C224.6 49.1999 224.5 48.7999 223.9 48.7999H222.8V48.5999H226.6V48.7999H225.8C225.4 48.7999 225.1 49.1999 224.9 49.5999L219.1 62.5999L213.3 49.5999C213 48.9999 212.7 48.7999 212.1 48.7999H211.5V48.5999H217.5V48.7999H216.5C215.9 48.7999 215.8 49.1998 216 49.6998L220.2 59.3998L224.4 49.5999Z" fill="#C69E62"/>
<path d="M236.4 61.5999C236.4 62.0999 236.4 62.3999 237 62.3999H238.2V62.5999H232.4V62.3999H233.5C234.1 62.3999 234.1 61.9999 234.1 61.5999V51.0999C234.1 50.4999 233.8 50.1999 233.4 50.1999C233.1 50.1999 232.8 50.2999 232.4 50.4999V50.2999L236 48.5999C236.3 48.3999 236.4 48.4999 236.4 48.7999V61.5999V61.5999ZM233.8 45.1999C233.8 44.3999 234.4 43.8999 235.1 43.8999C235.9 43.8999 236.4 44.3999 236.4 45.1999C236.4 45.9999 235.9 46.4999 235.1 46.4999C234.4 46.4999 233.8 45.9999 233.8 45.1999Z" fill="#C69E62"/>
<path d="M252.5 49.4999C251.3 49.4999 249.7 50.4999 248 51.7999V61.5999C248 62.0999 248 62.3999 248.6 62.3999H249.8V62.5999H244V62.3999H245.1C245.7 62.3999 245.7 61.9999 245.7 61.5999V51.0999C245.7 50.4999 245.4 50.1999 245 50.1999C244.7 50.1999 244.4 50.2999 244 50.4999V50.2999L247.6 48.5999C247.9 48.3999 248 48.4999 248 48.7999V51.2999C249.3 50.3999 252.4 48.4999 253 48.4999C255.9 48.4999 257.2 50.6999 257.2 53.3999V61.5999C257.2 62.0999 257.2 62.3999 257.8 62.3999H259V62.5999H253V62.3999H254.1C254.7 62.3999 254.7 61.9999 254.7 61.5999V52.9999C254.8 50.4999 253.8 49.4999 252.5 49.4999Z" fill="#C69E62"/>
<path d="M275.9 48.7C275.1 48.7 274.4 48.9 273.9 49.2C275.6 50.2 276.9 51.8 276.9 54C276.9 57.3 273.8 59.7 270.7 59.7C269.8 59.7 269 59.5 268.2 59.2C267.6 59.7 266.8 60.4999 266.8 60.8999C266.8 63.4999 277 60.2999 277 66.2999C277 69.6999 273.5 71.3999 270.6 71.3999C267.1 71.3999 264.6 69.3 264.6 67C264.6 66 265 64.8 266 63.7C265.5 63.3 265.2 62.5 265.3 61.8C265.4 61.3 266.8 59.9 267.8 59.2C265.9 58.3 264.5 56.4 264.5 54.2C264.5 51 267.5 48.6 270.6 48.6C271.7 48.6 272.8 48.8 273.7 49.3C274.5 48.4 276.2 47.2 277.2 47.2V49.2C276.8 48.7 276.4 48.7 275.9 48.7ZM265 67C265 69.2 267.4 71.1 271.2 71.1C273.2 71.1 276.1 69.3 276.1 67C276.1 63.8 269 65.3999 266.3 63.7999C265.4 64.8999 265 65.9 265 67ZM271 59.3C273.2 59.3 274.3 56.6999 274.3 54.3999C274.3 51.7999 272.7 48.6 270.3 48.6C268.2 48.6 267.1 51.3 267.1 53.5C267.1 56.2 268.5 59.3 271 59.3Z" fill="#C69E62"/>
</svg>
