<svg width="483" height="128" viewBox="0 0 483 128" fill="none" xmlns="http://www.w3.org/2000/svg">
<path d="M81.6 42.2999L87.7 40.7999C87 42.6999 86.5 49.4 92.5 49.4C97.6 49.4 98.3 43 98.3 38.5V2.69995C98.3 1.39995 98.3 0.599951 96.9 0.599951H93.9V0.199951H109.4V0.599951H106.6C105 0.599951 105 1.49995 105 2.69995V36.2999C105 44.4 101.4 50.2999 92.2 50.2999C87.1 50.3999 81.6 47.2999 81.6 42.2999Z" fill="white"/>
<path d="M122.2 49.5999H125C126.6 49.5999 126.6 48.7 126.6 47.5V2.69995C126.6 1.39995 126.6 0.599951 125.2 0.599951H122.2V0.199951H137.7V0.599951H134.9C133.3 0.599951 133.3 1.49995 133.3 2.69995V47.4C133.3 48.7 133.3 49.5 134.7 49.5H137.7V50H122.2V49.5999V49.5999Z" fill="white"/>
<path d="M151.9 49.5999H157.2C158.8 49.5999 158.8 48.7 158.8 47.5V2.69995C158.8 1.49995 158.8 0.599951 157.2 0.599951H151.9V0.199951H165L191.4 37.2999V2.69995C191.4 1.39995 191.4 0.599951 190 0.599951H184.5V0.199951H199.1V0.599951H193.8C192.2 0.599951 192.2 1.49995 192.2 2.69995V50L159.6 3.99995V47.5C159.6 48.8 159.6 49.5999 161 49.5999H167.1V50H151.9V49.5999Z" fill="white"/>
<path d="M211.6 25.1C211.6 11 222.8 0 236.9 0C242.2 0 249 1.3 253.2 4.8V12.9H252.7C249.4 6.6 242.4 0.9 235.5 0.9C224.4 0.9 218.9 13.6 218.9 24.1C218.9 35.5 225.6 49.2 237.7 49.2C242.9 49.2 248.7 45.6 248.7 39.7V27.7C248.7 26.4 248.7 25.6 247.3 25.6H244.3V25.2H259.8V25.6H257C255.4 25.6 255.4 26.5 255.4 27.7V50.5H254.9C254.9 48.2 253.3 46.3 250.9 46.3C248.3 46.3 244.2 50.3 237 50.3C222.9 50.2 211.6 39.2 211.6 25.1Z" fill="white"/>
<path d="M301.5 50V49.5999H304.3C305.9 49.5999 305.9 48.7 305.9 47.5V2.69995C305.9 1.39995 305.9 0.599951 304.5 0.599951H301.5V0.199951H320.9C334.5 0.199951 346 11.4 346 25.1C346 38.7 335.5 50 321.7 50H301.5ZM312.6 0.999951V49H316.7C331.2 49 339.1 39.7 339.1 25.1C339.1 10.5 331.3 0.899951 316.7 0.899951H312.6V0.999951Z" fill="white"/>
<path d="M358.7 0.199951H374.2V0.599951H371.4C369.8 0.599951 369.8 1.49995 369.8 2.69995V32.4C369.8 41.1 374.1 48.7999 382.7 48.7999C392 48.7999 396.1 42.5 396.1 33V2.69995C396.1 1.39995 396.1 0.599951 394.7 0.599951H389.2V0.199951H403.8V0.599951H398.5C396.9 0.599951 396.9 1.49995 396.9 2.69995V33C396.9 44 391.9 50.5 381.4 50.5C369.9 50.5 363.2 44.1999 363.2 32.7999V2.69995C363.2 1.39995 363.2 0.599951 361.8 0.599951H358.8V0.199951H358.7Z" fill="white"/>
<path d="M0 101.9C0 87 11.5 76 25.5 76C30.9 76 37.6 77.3 41.9 80.8V86.1H41.5C38.2 81.5 32.6 76.1 24.2 76.7C13.2 77.4 7.3 89.3 7.3 100.2C7.3 111.9 13.2 126.4 25.8 126.4C33 126.4 38.8 121.5 42.6 115.7H42.9L43.7 119.9C39 123.9 31.5 127.3 25.3 127.3C11.3 127.2 0 116.1 0 101.9Z" fill="white"/>
<path d="M53.2 126.4H57.2C58.8 126.4 59.7 125.4 60.1 124.3L78.4 76.5L96.5 124.3C96.9 125.5 97.6 126.4 99 126.4H101.4V126.8H85.3V126.4H87.8C89.4 126.4 89.8 125.4 89.4 124.3L83.4 108.3H67.2L61.1 124.3C60.7 125.5 60.9 126.4 62.3 126.4H68.4V126.8H53.2V126.4ZM83.1 107.5L75.4 86.8L67.5 107.5H83.1Z" fill="white"/>
<path d="M111.2 126.4H116.5C118.1 126.4 118.1 125.5 118.1 124.3V79.6C118.1 78.4 118.1 77.5 116.5 77.5H111.2V77.1H124.5L144.5 117.4L161.7 77.1H172.4V77.5H169.6C168 77.5 168 78.4 168 79.6V124.3C168 125.6 168 126.4 169.4 126.4H172.4V126.8H156.9V126.4H159.7C161.3 126.4 161.3 125.5 161.3 124.3V80.1L141.5 126.7L118.9 80.4V124.3C118.9 125.6 118.9 126.4 120.3 126.4H125.8V126.8H111.2V126.4V126.4Z" fill="white"/>
<path d="M187.4 126.8V126.4H190.2C191.8 126.4 191.8 125.5 191.8 124.3V79.6C191.8 78.3 191.8 77.5 190.4 77.5H187.4V77.1H205.2C213.3 77.1 221.6 80.4 221.6 89.1C221.6 94.6 217.8 98.5 212.7 100C220.3 100.7 226.7 105 226.7 113.3C226.7 122.9 217.9 126.9 208.8 126.9H187.4V126.8ZM198.5 99.8H203.9C210.8 99.8 215.1 96 215.1 89C215.1 82.1 211 77.8 204.2 77.8H198.5V99.8ZM207.2 126C215 126 219.7 121 219.7 113.2C219.7 105.2 214.6 100.6 206.7 100.6H198.5V126H207.2Z" fill="white"/>
<path d="M239.4 126.4H242.2C243.8 126.4 243.8 125.5 243.8 124.3V79.6C243.8 78.3 243.8 77.5 242.4 77.5H239.4V77.1H257.3C268.1 77.1 277.4 81.3 277.4 92.2C277.4 100.6 270.1 105.9 262.3 106.9C266.4 108.7 271.5 117.4 274.5 122.1C275.8 124.2 277.5 126.4 279.2 126.4H282V126.8H269.8L257.2 107.2H250.5V124.3C250.5 125.6 250.5 126.4 251.9 126.4H254.9V126.8H239.4V126.4ZM250.5 77.9V106.5H256.3C264.9 106.5 270.2 101.3 270.2 92.2C270.2 83.1 265.1 77.9 256.3 77.9H250.5Z" fill="white"/>
<path d="M295.1 126.4H297.9C299.5 126.4 299.5 125.5 299.5 124.3V79.6C299.5 78.3 299.5 77.5 298.1 77.5H295.1V77.1H310.6V77.5H307.8C306.2 77.5 306.2 78.4 306.2 79.6V124.3C306.2 125.6 306.2 126.4 307.6 126.4H310.6V126.8H295.1V126.4Z" fill="white"/>
<path d="M325.4 126.8V126.4H328.2C329.8 126.4 329.8 125.5 329.8 124.3V79.6C329.8 78.3 329.8 77.5 328.4 77.5H325.4V77.1H344.8C358.4 77.1 369.9 88.3 369.9 102C369.9 115.6 359.4 126.9 345.6 126.9H325.4V126.8ZM336.5 77.9V125.9H340.6C355.1 125.9 363 116.6 363 102C363 87.4 355.2 77.8 340.6 77.8H336.5V77.9Z" fill="white"/>
<path d="M385.9 101.9C385.9 87.8 397.1 76.8 411.2 76.8C416.5 76.8 423.3 78.1 427.5 81.6V89.7H427C423.7 83.4 416.7 77.7 409.8 77.7C398.7 77.7 393.2 90.4 393.2 100.9C393.2 112.3 399.9 126 412 126C417.2 126 423 122.4 423 116.5V104.5C423 103.2 423 102.4 421.6 102.4H418.6V102H434V102.4H431.2C429.6 102.4 429.6 103.3 429.6 104.5V127.3H429.1C429.1 125 427.5 123.1 425.1 123.1C422.5 123.1 418.4 127.1 411.2 127.1C397.2 127 385.9 116.1 385.9 101.9Z" fill="white"/>
<path d="M447.8 126.8V126.4H450.6C452.2 126.4 452.2 125.5 452.2 124.3V79.6C452.2 78.3 452.2 77.5 450.8 77.5H447.8V77.1H479.8L482 86.9H481.7C479 81.4 474.6 78 467.6 78H458.9V101.3H469.7C471 101.3 471.8 101.3 471.8 99.9V94.4H472.2V109H471.8V103.7C471.8 102.1 470.9 102.1 469.7 102.1H458.9V126H467.8C474.2 126 479.4 122.5 482.4 117.1H482.6L480.2 126.9H447.8V126.8Z" fill="white"/>
</svg>
